<?xml version="1.0" encoding="UTF-8" standalone="no"?>
<svg
   xmlns:dc="http://purl.org/dc/elements/1.1/"
   xmlns:cc="http://creativecommons.org/ns#"
   xmlns:rdf="http://www.w3.org/1999/02/22-rdf-syntax-ns#"
   xmlns:svg="http://www.w3.org/2000/svg"
   xmlns="http://www.w3.org/2000/svg"
   xmlns:sodipodi="http://sodipodi.sourceforge.net/DTD/sodipodi-0.dtd"
   xmlns:inkscape="http://www.inkscape.org/namespaces/inkscape"
   aria-hidden="true"
   focusable="false"
   data-prefix="fab"
   data-icon="cc-amex"
   class="svg-inline--fa fa-cc-amex fa-w-18"
   role="img"
   viewBox="0 0 576 512"
   version="1.1"
   id="svg4"
   sodipodi:docname="cc-amex-brands.svg"
   inkscape:version="0.92.4 (5da689c313, 2019-01-14)">
  <metadata
     id="metadata10">
    <rdf:RDF>
      <cc:Work
         rdf:about="">
        <dc:format>image/svg+xml</dc:format>
        <dc:type
           rdf:resource="http://purl.org/dc/dcmitype/StillImage" />
      </cc:Work>
    </rdf:RDF>
  </metadata>
  <defs
     id="defs8" />
  <sodipodi:namedview
     pagecolor="#ffffff"
     bordercolor="#666666"
     borderopacity="1"
     objecttolerance="10"
     gridtolerance="10"
     guidetolerance="10"
     inkscape:pageopacity="0"
     inkscape:pageshadow="2"
     inkscape:window-width="1920"
     inkscape:window-height="1043"
     id="namedview6"
     showgrid="false"
     inkscape:zoom="0.4609375"
     inkscape:cx="288"
     inkscape:cy="256"
     inkscape:window-x="1920"
     inkscape:window-y="0"
     inkscape:window-maximized="1"
     inkscape:current-layer="svg4" />
  <path
     d="m 575.80078,255.40039 c -37.7,-0.2 -44.00078,-0.9 -54.30078,5 v -5 c -45.3,0 -53.50039,-1.70078 -64.90039,5.19922 v -5.19922 H 378.40039 V 260.5 c -11.4,-6.5 -21.40117,-5.09961 -75.70117,-5.09961 V 261 c -6.3,-3.7 -14.49883,-5.59961 -24.29883,-5.59961 h -58 c -3.5,3.8 -12.50117,13.69922 -15.70117,17.19922 -12.7,-14.1 -10.5,-11.59922 -15.5,-17.19922 h -83.09961 v 92.29883 h 82 c 3.3,-3.5 12.89961,-13.89844 16.09961,-17.39844 12.7,14.3 10.30039,11.69844 15.40039,17.39844 H 268.5 c 0,-14.7 0.0996,-8.3 0.0996,-23 11.5,0.2 24.30078,-0.19922 34.30078,-6.19922 0,13.9 -0.0996,17.09922 -0.0996,29.19922 h 39.59961 c 0,-18.5 0.0996,-7.39883 0.0996,-25.29883 6.2,0 7.70039,-3.9e-4 9.40039,0.0996 0.1,1.3 0,-7.8e-4 0,25.19922 152.8,0 145.89922,1.1 156.69922,-4.5 v 4.5 c 34.8,0 54.8,2.20039 67.5,-6.09961 l -0.29883,-86.19922 z M 0,228.30078 H 26.599609 C 30.799609,218.20078 28.8,223 33,213 h 19.199219 c 4.2,10 2.20039,5.20078 6.40039,15.30078 H 111.5 v -11.40039 c 2.2,5 1.09961,2.50039 5.09961,11.40039 h 29.5 c 2.4,-5.5 2.59961,-5.80039 5.09961,-11.40039 v 11.40039 h 135.5 v -25.10156 c 6.4,0 8.00078,-0.0988 9.80078,0.20117 0,0 -0.20039,10.89883 0.0996,24.79883 h 66.5 v -8.89844 c 7.4,5.9 17.40117,8.89844 29.70117,8.89844 h 26.79883 c 4.2,-10.1 2.20039,-5.29883 6.40039,-15.29883 h 19 c 6.5,15 0.19961,0.49883 6.59961,15.29883 h 52.80078 v -21.89844 c 11.8,19.7 7.79922,12.89844 13.19922,21.89844 h 41.59961 v -92 h -39.89844 v 18.40039 c -12.2,-20.2 -6.30117,-10.40039 -11.20117,-18.40039 h -43.29883 v 20.60156 c -6.2,-14.6 -4.60078,-10.80156 -8.80078,-20.60156 H 423.5996 c -0.4,0 -2.29883,0.20117 -2.29883,-0.29883 h -27.60156 c -12.8,0 -23.09922,3.19883 -30.69922,9.29883 v -9.29883 H 323.0996 v 5.29883 c -10.8,-6.1 -20.70039,-5.09883 -64.40039,-5.29883 -0.1,0 -11.59961,-0.1 -11.59961,0 h -103 c -2.5,6.1 -6.79961,16.4 -12.59961,30 -2.8,-6 -11.00039,-23.8 -13.90039,-30 H 71.599609 V 157 c -7.4,-17.4 -4.7,-10.99961 -9,-21.09961 H 22.900391 c -3.4,7.9 -13.6996097,32.00039 -23.09960975,53.90039 z m 258.59961,-79.20117 39.09961,0.30078 c 13.3,0 27.40039,2.00039 27.40039,18.40039 0.1,8 -4.29922,15.69922 -11.69922,18.69922 9.5,3.3 11,9.20039 11,18.40039 v 13.5 h -16.59961 c -0.3,-14.8 3.59922,-25.09961 -14.80078,-25.09961 h -18 v 25.09961 h -16.40039 z m 135,0 h 16.09961 v 15.20117 c -17.4,-0.3 -33.09961,-4.10078 -33.09961,19.69922 0,11.8 2.79961,19.90039 16.09961,19.90039 h 7.40039 l 23.5,-54.5 h 24.80078 l 27.90039,65.40039 v -65.40039 h 25.29883 L 530.69922,197.5 v -48.09961 h 16.90039 v 69 H 524 L 492.80078,166.5 v 51.90039 H 459.09961 L 452.5,203.09961 h -34.30078 l -6.39844,15.30078 h -19.20117 c -22.8,0 -33,-11.8 -33,-34 0,-23.3 10.5,-35.30078 34,-35.30078 z m -362.900391,0.0996 h 24.5 l 28.101562,65.70117 v -65.70117 h 27.099609 l 21.69922,47 19.70117,-47 h 27.59961 V 218.5 h -16.80078 v -54.19922 l -24,54.19922 H 124 L 100,164.30078 V 218.5 H 66.199219 l -6.398438,-15.30078 h -34.5 L 18.900391,218.5 H 1 Z m 161.000001,0 h 55.5 v 14.60156 h -38.89844 v 12.5 h 37.79883 v 14.09961 h -37.79883 v 13.79883 h 38.89844 V 218.5 h -55.5 z m 142.90039,0 H 351.5 V 218.5 h -16.90039 z m -292.199219,12 -11.201172,27.60156 h 22.701172 z m 393.298829,0 -11.59961,27.60156 h 22.80078 z M 275,163.80078 v 15.29883 h 20.69922 c 5.7,0 11,-1.30039 11,-7.90039 0,-6.4 -5.59922,-7.39844 -10.69922,-7.39844 z m 121.69922,10 c 1,0 2.00156,0.0996 3.10156,0.0996 L 392.5,190.80078 c -2.3,0 -3.20039,-0.4 -3.40039,-0.5 -0.2,-0.2 -1.09961,-1.90039 -1.09961,-7.90039 0,-5.4 1.10039,-7.39961 1.40039,-7.59961 0.3,-0.3 1.69883,-1 7.29883,-1 z M 477.5,268.5 h 33.19922 v 14.59961 h -30.39844 c -4.3,0 -9.20117,0.80039 -9.20117,6.40039 0,15.1 42.90039,-6.89922 42.90039,26.30078 0,16.4 -11.39922,22 -26.19922,22 H 455.59961 L 455.69922,323 h 32.20117 c 4.1,0 8.69883,-1.00039 8.79883,-6.40039 0,-14.9 -42.69922,5.59961 -42.69922,-27.40039 0,-14.1 10.7,-20.69922 23.5,-20.69922 z m -359.19922,0.0996 h 66.5 l 20.5,22.80078 21,-22.80078 H 279 c 15.6,0 27.90039,5.40117 27.90039,22.70117 0,27.9 -30.40078,23.29883 -49.30078,23.29883 L 257.5,337.90039 h -32.19922 l -20.40039,-23 -21.30078,23 h -65.40039 z m 196.59961,0 h 39.40039 c 13,0 27.09961,2.30117 27.09961,18.70117 -0.1,7.6 -4.20039,15.29844 -11.90039,18.39844 9.2,3.3 11,9.50039 11,18.40039 l -0.0996,13.80078 h -16.59961 l 0.0996,-11.5 c 0,-11.8 -3.80078,-13.80078 -14.80078,-13.80078 H 331.5 l -0.0996,25.30078 h -16.59961 z m 75.59961,0 h 55.19922 v 14.30078 h -38.5 v 12.5 H 445 V 309.5 h -37.90039 v 13.80078 l 38.59961,0.29883 -0.0996,14.30078 H 390.4004 Z m 151.59961,0 H 575 v 14.59961 h -30.09961 c -4.6,0 -9.20117,0.7 -9.20117,6.5 0,12.2 28.80078,-0.3 39.30078,13.5 V 329 c -4.9,7.1 -14.1,8.90039 -22.5,8.90039 h -32 l 0.0996,-14.80078 h 32 c 4.1,0 8.40039,-1.30039 8.40039,-6.40039 0,-14.6 -42.69922,5.60156 -42.69922,-27.39844 0,-14.1 10.99883,-20.70117 23.79883,-20.70117 z M 241,276 215.69922,303.40039 241,331.5 Z m -106.40039,6.90039 v 12.5 h 36.30078 V 309.5 h -36.30078 v 13.80078 h 40.59961 l 19,-20.20117 -17.89844,-20.19922 z m 123,0 V 300.5 h 21.20117 c 5.9,0 10.5,-2.79922 10.5,-9.19922 0,-6.1 -4.60117,-8.40039 -10.20117,-8.40039 z m 73.90039,0 V 298.5 h 20.69922 c 5.6,0 11,-1.29922 11,-8.19922 0,-6.4 -5.59922,-7.40039 -10.69922,-7.40039 z"
     id="path2"
     inkscape:connector-curvature="0"
     sodipodi:nodetypes="cccccccccscccccccccccccccccccccccccccccccccccccscccccccccccccccscsccccccccccccccccsccsccsccccsccsscccccccccccccccccsssccccccccccccccccccccccccccccccccccccccccccccccccsssscssccscssccssssccscssccccsscccccccccccccccscccccscccccccccccsccssccsccsssscccccccccccccccccssccccsscsc" />
</svg>
