<?xml version="1.0" encoding="UTF-8" standalone="no"?>
<svg
   xmlns:dc="http://purl.org/dc/elements/1.1/"
   xmlns:cc="http://creativecommons.org/ns#"
   xmlns:rdf="http://www.w3.org/1999/02/22-rdf-syntax-ns#"
   xmlns:svg="http://www.w3.org/2000/svg"
   xmlns="http://www.w3.org/2000/svg"
   xmlns:sodipodi="http://sodipodi.sourceforge.net/DTD/sodipodi-0.dtd"
   xmlns:inkscape="http://www.inkscape.org/namespaces/inkscape"
   aria-hidden="true"
   focusable="false"
   data-prefix="fab"
   data-icon="cc-mastercard"
   class="svg-inline--fa fa-cc-mastercard fa-w-18"
   role="img"
   viewBox="0 0 576 512"
   version="1.1"
   id="svg4"
   sodipodi:docname="cc-mastercard-brands.svg"
   inkscape:version="0.92.4 (5da689c313, 2019-01-14)">
  <metadata
     id="metadata10">
    <rdf:RDF>
      <cc:Work
         rdf:about="">
        <dc:format>image/svg+xml</dc:format>
        <dc:type
           rdf:resource="http://purl.org/dc/dcmitype/StillImage" />
      </cc:Work>
    </rdf:RDF>
  </metadata>
  <defs
     id="defs8" />
  <sodipodi:namedview
     pagecolor="#ffffff"
     bordercolor="#666666"
     borderopacity="1"
     objecttolerance="10"
     gridtolerance="10"
     guidetolerance="10"
     inkscape:pageopacity="0"
     inkscape:pageshadow="2"
     inkscape:window-width="1920"
     inkscape:window-height="1043"
     id="namedview6"
     showgrid="false"
     inkscape:zoom="0.4609375"
     inkscape:cx="288"
     inkscape:cy="256"
     inkscape:window-x="1920"
     inkscape:window-y="0"
     inkscape:window-maximized="1"
     inkscape:current-layer="svg4" />
  <path
     d="m 373.5,82.300781 c -27.2,0 -53.9,8.19961 -76.5,23.099609 72.1,59.3 73.2,171.5 0,230.5 22.6,15 49.5,23.09961 76.5,23.09961 76.4,0.1 138.5,-61.90039 138.5,-138.40039 0,-76.2 -62.1,-138.298829 -138.5,-138.298829 z m -171,0.09961 C 126.1,82.300391 64,144.39961 64,220.59961 c 0,76.5 62.1,138.5 138.5,138.5 27.2,0 53.9,-8.19961 76.5,-23.09961 -72.9,-59.3 -72.4,-171.2 0,-230.5 -22.6,-15 -49.3,-23.099609 -76.5,-23.099609 z M 288,111.90039 c -70.2,55.3 -70.5,162.6 0,217.5 70.5,-55 70.2,-162.2 0,-217.5 z M 501.59961,301.09961 V 306.5 h 0.80078 v -4.09961 l 1.59961,3.5 h 1.09961 l 1.40039,-3.5 V 306.5 h 1.09961 v -5.40039 h -1.40039 l -1.59961,3.5 -1.59961,-3.5 z m -5.69922,0.0996 V 302 h 1.90039 v 4.59961 h 0.79883 V 302 H 500.5 v -0.80078 z m -13.59961,75.90039 v 19.30078 c -8.2,-10.9 -29.90039,-5.09961 -29.90039,13.90039 0,19.4 22.50039,24.59844 29.90039,13.89844 v 4.60156 h 7.89844 v -51.70117 z m -238.40039,3.70117 V 392 h -7.59961 v 7.30078 h 7.59961 V 416 c 0,17.6 17.29961,14.40039 22.59961,10.90039 l -2.19922,-6.80078 c -3.8,2.1 -12.20117,4.40039 -12.20117,-4.09961 v -16.59961 h 13.09961 V 392 h -13.09961 v -11.19922 z m 89.11719,10.07813 c -3.49024,0.11523 -7.06836,1.64648 -9.31836,5.52148 V 392 H 315.5 v 36.69922 h 8.19922 V 408 c 0,-11.6 9.50078,-10.10039 12.80078,-8.40039 L 338.90039,392 c -1.725,-0.75 -3.78867,-1.19023 -5.88281,-1.12109 z m -43.11719,0.0215 c -10.6,0 -18.20117,7.89883 -18.20117,19.29883 0,20.5 22.60078,23.90117 33.80078,14.20117 l -3.80078,-6 c -7.8,6.4 -19.59844,5.79961 -21.89844,-4.90039 h 27.5 c 0,-16.2 -7.40039,-22.59961 -17.40039,-22.59961 z m 154.17773,0.0332 c -3.2603,0.10174 -7.0164,1.36055 -9.3789,5.4668 V 392 h -7.89844 v 36.69922 h 7.89844 V 408 c 0,-11 9.00078,-10.30039 12.80078,-8.40039 L 449.90039,392 c -1.05,-0.525 -3.28647,-1.14553 -5.82227,-1.06641 z m -47.93554,0.0293 c -8.74114,0.17694 -18.04297,7.06602 -18.04297,19.33789 0,19.2 22.40039,24.69844 29.90039,13.89844 v 4.60156 h 8.19922 V 392 H 408 v 4.40039 c -2.85312,-3.78125 -7.27873,-5.53018 -11.85742,-5.4375 z m -181.08399,0.002 c -7.92552,0.14328 -15.25781,3.60391 -15.25781,12.03516 0,14.3 22.89844,8.3 22.89844,15 0,6.3 -13.49922,5.80078 -20.69922,0.80078 l -3.5,6.29883 c 11.2,7.6 32.59961,6 32.59961,-7.5 0,-15 -22.90039,-8.19922 -22.90039,-15.19922 0,-5.7 11.9,-4.79961 18.5,-1.09961 l 3.30078,-6.5 c -3.81875,-2.47812 -9.51868,-3.93397 -14.94141,-3.83594 z M 106,391 c -3.8,0 -7.599609,1.40039 -10.599609,5.40039 V 392 h -8.201172 v 36.69922 h 8.201172 c 0,-18.9 -2.5,-30.19922 8.999999,-30.19922 10.2,0 8.19922,10.19922 8.19922,30.19922 H 120.5 c 0,-18.3 -2.5,-30.19922 9,-30.19922 10.2,0 8.19922,9.99922 8.19922,30.19922 h 8.20117 v -23 h -0.20117 C 145.69922,396.99922 140,391.3 131,391 c -4.6,0 -9.50078,1.4 -12.80078,6.5 C 115.79922,393.4 111.7,391 106,391 Z m 65,0 c -10.3,0 -18.19922,8.20078 -18.19922,19.30078 0,11.2 7.89922,19.29883 18.19922,19.29883 5.2,0 8.99922,-1.90039 11.69922,-5.40039 v 4.60156 h 7.90039 V 392 h -7.90039 v 4.40039 C 179.99922,393.10039 176.2,391 171,391 Z m 190.27539,0 c -10.00259,-0.19766 -19.97461,6.26914 -19.97461,19.40039 0,19.8 22.39922,23.8 32.69922,15 l -3.80078,-6.5 c -9.2,6.5 -20.69922,2.60039 -20.69922,-8.59961 0,-11.4 11.59922,-15.10039 20.69922,-8.40039 l 3.80078,-6.5 C 370.375,392.55664 365.82202,391.08984 361.27539,391 Z m -71.67578,7.30078 c 5.2,0 8.69961,2.99922 9.59961,8.69922 h -19.09961 c 0.8,-5.2 4.1,-8.69922 9.5,-8.69922 z m -117.5,0.29883 c 6.5,0 10.80039,5.20117 10.90039,11.70117 0,6.8 -4.40039,11.69922 -10.90039,11.69922 -7.1,0 -11.19922,-5.19922 -11.19922,-11.69922 0,-6.5 4.09922,-11.70117 11.19922,-11.70117 z m 225.30078,0 c 6.8,0 11.19922,5.20117 11.19922,11.70117 0,6.8 -4.39922,11.69922 -11.19922,11.69922 -6.8,0 -10.90039,-5.19922 -10.90039,-11.69922 0,-6.5 4.10039,-11.70117 10.90039,-11.70117 z m 74.29883,0 c 6.6,0 11.20117,5.20117 11.20117,11.70117 0,6.8 -4.60117,11.69922 -11.20117,11.69922 -6.8,0 -11.19922,-5.19922 -11.19922,-11.69922 0,-6.5 4.39922,-11.70117 11.19922,-11.70117 z M 500.59961,422 c -0.3,0 -0.80039,0.30078 -1.40039,0.30078 -0.5,0.3 -0.79961,0.49883 -1.09961,0.79883 -0.5,0.3 -0.79883,0.79961 -0.79883,1.09961 -0.3,0.5 -0.30078,1.10156 -0.30078,1.60156 0,0.3 7.8e-4,0.79844 0.30078,1.39844 0,0.3 0.29883,0.80156 0.79883,1.10156 0.3,0.3 0.49961,0.49883 1.09961,0.79883 0.5,0.3 1.10039,0.30078 1.40039,0.30078 0.5,0 1.09961,-7.8e-4 1.59961,-0.30078 0.3,-0.3 0.80156,-0.49883 1.10156,-0.79883 0.3,-0.3 0.49883,-0.80156 0.79883,-1.10156 0.3,-0.6 0.30078,-1.09844 0.30078,-1.39844 0,-0.5 -7.8e-4,-1.10156 -0.30078,-1.60156 -0.3,-0.3 -0.49883,-0.79961 -0.79883,-1.09961 -0.3,-0.3 -0.80156,-0.49883 -1.10156,-0.79883 -0.5,0 -1.09961,-0.30078 -1.59961,-0.30078 z m 0,0.80078 c 0.5,0 0.79961,-0.001 1.09961,0.29883 0.5,0.3 0.80156,0.3 1.10156,0.5 0.3,0.2 0.2,0.59961 0.5,1.09961 0,0.3 0.29883,0.50156 0.29883,1.10156 0,0.3 -0.29883,0.49961 -0.29883,1.09961 -0.3,0.3 -0.3,0.49883 -0.5,0.79883 -0.3,0.3 -0.50156,0.5 -1.10156,0.5 -0.3,0.3 -0.49961,0.30078 -1.09961,0.30078 -0.3,0 -0.49961,-7.8e-4 -1.09961,-0.30078 -0.3,0 -0.50078,-0.3 -0.80078,-0.5 -0.3,-0.3 -0.5,-0.49883 -0.5,-0.79883 -0.3,-0.5 -0.29883,-0.79961 -0.29883,-1.09961 0,-0.5 -0.001,-0.80156 0.29883,-1.10156 0,-0.5 0.3,-0.79961 0.5,-1.09961 0.3,-0.3 0.50078,-0.3 0.80078,-0.5 0.5,-0.3 0.79961,-0.29883 1.09961,-0.29883 z m -1.40039,1.09961 v 3.5 H 500 V 426 h 0.30078 l 1.09961,1.40039 h 0.79883 l -1.09961,-1.30078 c 0.5,0 0.50078,-0.29883 0.80078,-0.29883 0.3,-0.3 0.29883,-0.50078 0.29883,-0.80078 0,-0.3 0.001,-0.50078 -0.29883,-0.80078 -0.3,0 -0.49961,-0.29883 -1.09961,-0.29883 z"
     id="path2"
     inkscape:connector-curvature="0"
     sodipodi:nodetypes="scccsscsscccccccccccccccccccccccccccccccsccccccccccsccsccccccccccccscccssccccsccccccscccssccccccssssccssccsscccccsccsccccccssssccccccscsccscccsccsscsssssssssssssscccscccscscscscsscscscccscccscccscccccccccscsc" />
</svg>
