<?xml version="1.0" encoding="UTF-8" standalone="no"?>
<svg
   xmlns:dc="http://purl.org/dc/elements/1.1/"
   xmlns:cc="http://creativecommons.org/ns#"
   xmlns:rdf="http://www.w3.org/1999/02/22-rdf-syntax-ns#"
   xmlns:svg="http://www.w3.org/2000/svg"
   xmlns="http://www.w3.org/2000/svg"
   xmlns:sodipodi="http://sodipodi.sourceforge.net/DTD/sodipodi-0.dtd"
   xmlns:inkscape="http://www.inkscape.org/namespaces/inkscape"
   aria-hidden="true"
   focusable="false"
   data-prefix="fab"
   data-icon="cc-visa"
   class="svg-inline--fa fa-cc-visa fa-w-18"
   role="img"
   viewBox="0 0 576 512"
   version="1.1"
   id="svg4"
   sodipodi:docname="cc-visa-brands.svg"
   inkscape:version="0.92.4 (5da689c313, 2019-01-14)">
  <metadata
     id="metadata10">
    <rdf:RDF>
      <cc:Work
         rdf:about="">
        <dc:format>image/svg+xml</dc:format>
        <dc:type
           rdf:resource="http://purl.org/dc/dcmitype/StillImage" />
      </cc:Work>
    </rdf:RDF>
  </metadata>
  <defs
     id="defs8" />
  <sodipodi:namedview
     pagecolor="#ffffff"
     bordercolor="#666666"
     borderopacity="1"
     objecttolerance="10"
     gridtolerance="10"
     guidetolerance="10"
     inkscape:pageopacity="0"
     inkscape:pageshadow="2"
     inkscape:window-width="1920"
     inkscape:window-height="1043"
     id="namedview6"
     showgrid="false"
     inkscape:zoom="0.4609375"
     inkscape:cx="288"
     inkscape:cy="256"
     inkscape:window-x="1920"
     inkscape:window-y="0"
     inkscape:window-maximized="1"
     inkscape:current-layer="svg4" />
  <path
     d="m 356.5,173.09961 c -39.7,0 -67.60078,21.20039 -67.80078,51.40039 -0.3,22.3 20.00117,34.69922 35.20117,42.19922 15.5,7.6 20.79883,12.60078 20.79883,19.30078 -0.2,10.4 -12.59961,15.19922 -24.09961,15.19922 -16,0 -24.59922,-2.49883 -37.69922,-8.29883 l -5.30078,-2.5 L 272,325.30078 c 9.4,4.3 26.80078,8.09883 44.80078,8.29883 42.2,0.1 69.7,-20.8 70,-53 0.2,-17.7 -10.60117,-31.19883 -33.70117,-42.29883 -14.1,-7.1 -22.69922,-11.90117 -22.69922,-19.20117 0.2,-6.6 7.29961,-13.40039 23.09961,-13.40039 13.1,-0.3 22.70039,2.80039 29.90039,5.90039 l 3.59961,1.70117 5.5,-33.60156 c -7.9,-3.1 -20.5,-6.59961 -36,-6.59961 z M 32.699219,176 32,179.09961 c 15.8,4 29.899219,9.79961 42.199219,17.09961 l 35.800781,135 h 42.5 L 215.69922,176 h -42.5 l -39.29883,106 -4.30078,-21.5 -14,-71.40039 c -2.3,-9.9 -9.39922,-12.69961 -18.199219,-13.09961 z m 199.201171,0 -25.09961,155.40039 h 40.09961 L 272.09961,176 Z M 464.5,176 c -9.6,0 -16.9,2.80039 -21,12.90039 l -59.69922,142.5 H 426 c 0,0 6.90039,-19.20078 8.40039,-23.30078 H 486 c 1.2,5.5 4.80078,23.30078 4.80078,23.30078 H 528 L 495.59961,176 Z m 2.80078,41.90039 2.79883,13.40039 c 0,0 7.60078,37.2 9.30078,45 H 446 c 3.3,-8.9 16,-43.5 16,-43.5 -0.2,0.3 3.30078,-9.10039 5.30078,-14.90039 z"
     id="path2"
     inkscape:connector-curvature="0"
     sodipodi:nodetypes="scccscccccccccccscccccccccccccccccsccccccccscccccc" />
</svg>
